<?xml version="1.0" standalone="no"?>
<!DOCTYPE svg PUBLIC "-//W3C//DTD SVG 20010904//EN"
 "http://www.w3.org/TR/2001/REC-SVG-20010904/DTD/svg10.dtd">
<svg version="1.0" xmlns="http://www.w3.org/2000/svg"
 width="512.000000pt" height="512.000000pt" viewBox="0 0 512.000000 512.000000"
 preserveAspectRatio="xMidYMid meet">
<metadata>
Created by potrace 1.16, written by Peter Selinger 2001-2019
</metadata>
<g transform="translate(0.000000,512.000000) scale(0.100000,-0.100000)"
fill="#000000" stroke="none">
<path d="M0 2560 l0 -2560 2560 0 2560 0 0 2560 0 2560 -2560 0 -2560 0 0
-2560z m2751 2437 c43 -29 79 -82 79 -117 0 -26 2 -27 65 -32 126 -11 250
-100 311 -223 28 -58 29 -65 32 -232 4 -172 4 -173 26 -173 13 0 35 -12 50
-26 26 -26 26 -29 26 -164 0 -135 0 -138 -26 -164 -23 -23 -35 -26 -90 -26
l-64 0 0 -68 c0 -135 -57 -274 -156 -381 -34 -36 -80 -77 -103 -91 l-40 -25
-1 -145 0 -145 358 -95 c425 -113 479 -135 587 -243 49 -49 84 -95 109 -145
69 -136 66 -96 66 -1027 l0 -840 -24 -52 c-36 -76 -92 -125 -192 -167 -92 -39
-104 -42 -104 -26 0 7 -373 10 -1100 10 -727 0 -1100 -3 -1100 -10 0 -16 -12
-13 -104 26 -100 42 -156 91 -192 167 l-24 52 0 840 c0 931 -3 891 66 1027 25
50 59 96 108 144 109 109 171 134 593 246 l353 93 0 145 -1 145 -40 25 c-23
14 -69 55 -103 91 -99 107 -156 246 -156 381 l0 68 -64 0 c-55 0 -67 3 -90 26
-26 26 -26 29 -26 164 0 135 0 138 26 164 15 14 37 26 50 26 24 0 24 1 24 113
0 129 15 199 64 302 69 146 175 253 318 320 111 53 166 64 319 64 126 1 139
-1 170 -22z m2269 -627 l0 -650 -465 0 -466 0 -199 -150 c-110 -82 -202 -150
-205 -150 -3 0 -5 68 -5 150 l0 150 -110 0 -110 0 0 650 0 650 780 0 780 0 0
-650z"/>
<path d="M2475 1281 c-186 -86 -133 -365 72 -379 73 -5 135 25 178 87 26 37
30 51 30 111 0 60 -4 74 -30 112 -56 80 -162 110 -250 69z"/>
</g>
</svg>
